<svg width="24" height="25" viewBox="0 0 24 25" fill="none" xmlns="http://www.w3.org/2000/svg">
<path d="M10.4603 14.395H4.92733C2.38133 14.395 5.69133 3.5 7.51533 3.5H20.0363C20.5683 3.5 21.0003 3.924 21.0003 4.447V13.832C20.9993 14.003 20.9521 14.1706 20.8638 14.317C20.7754 14.4635 20.6491 14.5833 20.4983 14.664C18.4363 15.77 16.0173 16.676 14.8203 18.793L13.5403 21.059C13.464 21.1936 13.3532 21.3055 13.2192 21.383C13.0853 21.4605 12.9331 21.5009 12.7783 21.5C9.59833 21.5 10.5413 16.87 10.9733 15.03C10.9907 14.9534 10.9905 14.8738 10.9727 14.7973C10.955 14.7208 10.9201 14.6493 10.8707 14.5882C10.8213 14.5271 10.7588 14.478 10.6877 14.4445C10.6166 14.411 10.5389 14.3941 10.4603 14.395Z" stroke="#0A0A0A" stroke-width="1.5" stroke-linecap="round" stroke-linejoin="round"/>
</svg>
