<svg width="24" height="25" viewBox="0 0 24 25" fill="none" xmlns="http://www.w3.org/2000/svg">
<path d="M14.54 10.605H20.073C22.619 10.605 19.309 21.5 17.485 21.5H4.964C4.71062 21.5021 4.46676 21.4036 4.286 21.226C4.10525 21.0485 4.00238 20.8064 4 20.553V11.168C4 10.821 4.193 10.502 4.502 10.336C6.564 9.23002 8.983 8.32401 10.18 6.20701L11.46 3.94102C11.5363 3.80638 11.6472 3.69453 11.7811 3.61701C11.915 3.53949 12.0672 3.4991 12.222 3.50002C15.402 3.50002 14.459 8.13002 14.027 9.97002C14.0096 10.0466 14.0098 10.1262 14.0276 10.2027C14.0454 10.2792 14.0803 10.3507 14.1296 10.4118C14.179 10.4729 14.2416 10.5221 14.3126 10.5555C14.3837 10.589 14.4614 10.6059 14.54 10.605Z" stroke="#0A0A0A" stroke-width="1.5" stroke-linecap="round" stroke-linejoin="round"/>
</svg>
