<svg width="19" height="18" viewBox="0 0 19 18" fill="none" xmlns="http://www.w3.org/2000/svg">
<path fill-rule="evenodd" clip-rule="evenodd" d="M9.5 2.25C7.70979 2.25 5.9929 2.96116 4.72703 4.22703C3.46116 5.4929 2.75 7.20979 2.75 9C2.75 10.7902 3.46116 12.5071 4.72703 13.773C5.9929 15.0388 7.70979 15.75 9.5 15.75H12.875C13.9235 15.75 14.4478 15.75 14.861 15.579C15.1341 15.4659 15.3822 15.3002 15.5912 15.0912C15.8002 14.8822 15.9659 14.6341 16.079 14.361C16.25 13.9478 16.25 13.4235 16.25 12.375V9C16.25 7.20979 15.5388 5.4929 14.273 4.22703C13.0071 2.96116 11.2902 2.25 9.5 2.25ZM6.5 8.25C6.5 8.05109 6.57902 7.86032 6.71967 7.71967C6.86032 7.57902 7.05109 7.5 7.25 7.5H11.75C11.9489 7.5 12.1397 7.57902 12.2803 7.71967C12.421 7.86032 12.5 8.05109 12.5 8.25C12.5 8.44891 12.421 8.63968 12.2803 8.78033C12.1397 8.92098 11.9489 9 11.75 9H7.25C7.05109 9 6.86032 8.92098 6.71967 8.78033C6.57902 8.63968 6.5 8.44891 6.5 8.25ZM8.75 11.25C8.75 11.0511 8.82902 10.8603 8.96967 10.7197C9.11032 10.579 9.30109 10.5 9.5 10.5H11.75C11.9489 10.5 12.1397 10.579 12.2803 10.7197C12.421 10.8603 12.5 11.0511 12.5 11.25C12.5 11.4489 12.421 11.6397 12.2803 11.7803C12.1397 11.921 11.9489 12 11.75 12H9.5C9.30109 12 9.11032 11.921 8.96967 11.7803C8.82902 11.6397 8.75 11.4489 8.75 11.25Z" fill="#0A0A0A"/>
</svg>
