<svg width="19" height="18" viewBox="0 0 19 18" fill="none" xmlns="http://www.w3.org/2000/svg">
<path d="M2.75 9C2.75 7.20979 3.46116 5.4929 4.72703 4.22703C5.9929 2.96116 7.70979 2.25 9.5 2.25C11.2902 2.25 13.0071 2.96116 14.273 4.22703C15.5388 5.4929 16.25 7.20979 16.25 9V13.2947C16.25 14.0102 16.25 14.3662 16.1437 14.6523C16.0592 14.8789 15.9269 15.0848 15.7558 15.2558C15.5848 15.4269 15.3789 15.5592 15.1523 15.6437C14.8662 15.75 14.5093 15.75 13.7947 15.75H9.5C7.70979 15.75 5.9929 15.0388 4.72703 13.773C3.46116 12.5071 2.75 10.7902 2.75 9Z" stroke="#EFBD93"/>
<path d="M6.96875 8.15625H12.0312M9.5 11.5312H12.0312" stroke="#EFBD93" stroke-linecap="round" stroke-linejoin="round"/>
</svg>
