<svg width="30" height="30" viewBox="0 0 30 30" fill="none" xmlns="http://www.w3.org/2000/svg">
<rect width="30" height="30" rx="15" fill="#EFBD93"/>
<path d="M15 24C12.5 24 10.375 23.125 8.625 21.375C6.875 19.625 6 17.5 6 15C6 12.5 6.875 10.375 8.625 8.625C10.375 6.875 12.5 6 15 6C15.2333 6 15.4627 6.00833 15.688 6.025C15.9133 6.04167 16.134 6.06667 16.35 6.1C15.6667 6.58333 15.1207 7.21267 14.712 7.988C14.3033 8.76333 14.0993 9.60067 14.1 10.5C14.1 12 14.625 13.275 15.675 14.325C16.725 15.375 18 15.9 19.5 15.9C20.4167 15.9 21.2583 15.6957 22.025 15.287C22.7917 14.8783 23.4167 14.3327 23.9 13.65C23.9333 13.8667 23.9583 14.0873 23.975 14.312C23.9917 14.5367 24 14.766 24 15C24 17.5 23.125 19.625 21.375 21.375C19.625 23.125 17.5 24 15 24Z" fill="#0A0A0A"/>
</svg>
