<svg width="18" height="19" viewBox="0 0 18 19" fill="none" xmlns="http://www.w3.org/2000/svg">
<path d="M11.43 2H8.5095C7.1865 2 6.138 2 5.31825 2.111C4.47375 2.225 3.7905 2.465 3.252 3.00575C2.71275 3.5465 2.4735 4.23275 2.36025 5.08025C2.25 5.90375 2.25 6.956 2.25 8.28425V12.6627C2.25 13.7937 2.94 14.7627 3.92025 15.1693C3.87 14.4867 3.87 13.5305 3.87 12.734V8.9765C3.87 8.01575 3.87 7.187 3.9585 6.524C4.05375 5.813 4.26825 5.132 4.81875 4.57925C5.36925 4.0265 6.048 3.81125 6.756 3.71525C7.416 3.62675 8.241 3.62675 9.19875 3.62675H11.5013C12.4583 3.62675 13.2817 3.62675 13.9425 3.71525C13.7446 3.20997 13.399 2.77605 12.9508 2.47009C12.5026 2.16412 11.9727 2.0003 11.43 2Z" fill="#717171"/>
<path d="M4.9502 9.0477C4.9502 7.0032 4.9502 5.98095 5.5832 5.3457C6.21545 4.71045 7.2332 4.71045 9.2702 4.71045H11.4302C13.4664 4.71045 14.4849 4.71045 15.1179 5.3457C15.7509 5.98095 15.7502 7.0032 15.7502 9.0477V12.6627C15.7502 14.7072 15.7502 15.7294 15.1179 16.3647C14.4849 16.9999 13.4664 16.9999 11.4302 16.9999H9.2702C7.23395 16.9999 6.21545 16.9999 5.5832 16.3647C4.9502 15.7294 4.9502 14.7072 4.9502 12.6627V9.0477Z" fill="#717171"/>
</svg>
