<svg width="36" height="36" viewBox="0 0 36 36" fill="none" xmlns="http://www.w3.org/2000/svg">
<path d="M0.5 8.5C0.5 4.35786 3.85786 1 8 1H28C32.1421 1 35.5 4.35786 35.5 8.5V27.5C35.5 31.6421 32.1421 35 28 35H8C3.85786 35 0.5 31.6421 0.5 27.5V8.5Z" stroke="#F4F4F4"/>
<path d="M10.2051 22.9999V25.2929C10.2051 25.4255 10.2578 25.5527 10.3515 25.6465C10.4453 25.7403 10.5725 25.7929 10.7051 25.7929H13.0031C13.1354 25.7929 13.2624 25.7404 13.3561 25.6469L22.8041 16.1989L19.8041 13.1989L10.3521 22.6469C10.2582 22.7405 10.2054 22.8674 10.2051 22.9999ZM21.0421 11.9599L24.0421 14.9599L25.5021 13.4999C25.6895 13.3124 25.7949 13.0581 25.7949 12.7929C25.7949 12.5278 25.6895 12.2735 25.5021 12.0859L23.9171 10.4999C23.7296 10.3125 23.4752 10.2072 23.2101 10.2072C22.9449 10.2072 22.6906 10.3125 22.5031 10.4999L21.0421 11.9599Z" fill="#1B1B1B"/>
</svg>
