<svg width="76" height="76" viewBox="0 0 76 76" fill="none" xmlns="http://www.w3.org/2000/svg">
<path d="M0 16.5C0 7.66344 7.16344 0.5 16 0.5H60C68.8366 0.5 76 7.66344 76 16.5V59.5C76 68.3366 68.8366 75.5 60 75.5H16C7.16344 75.5 0 68.3366 0 59.5V16.5Z" fill="#EFBD93"/>
<path d="M47.7394 21.282L49.0082 22.1576C50.8685 23.4413 52.48 25.0523 53.7643 26.9121L54.6384 28.1809L52.1008 29.9307L51.2251 28.6619C50.1539 27.1105 48.8099 25.7664 47.2584 24.6952L45.9896 23.8211L47.7394 21.282ZM41.118 26.0488C40.9211 25.8523 40.6874 25.6965 40.4302 25.5903C40.173 25.4842 39.8975 25.4297 39.6193 25.4302C39.3411 25.4306 39.0657 25.4859 38.8088 25.5928C38.552 25.6998 38.3188 25.8563 38.1225 26.0534L30.0226 34.1965L30.7071 32.5069C31.5704 30.3794 29.1577 28.4214 27.2538 29.7041C26.9633 29.899 26.7208 30.1573 26.5446 30.4595L22.8739 36.7449C21.6388 38.8599 21.139 41.3243 21.4525 43.7534C21.766 46.1824 22.8752 48.4392 24.6067 50.1713L25.9094 51.4724C27.9881 53.5506 30.8071 54.7181 33.7465 54.7181C36.6858 54.7181 39.5049 53.5506 41.5835 51.4724L49.3458 43.7086C49.7389 43.3101 49.9583 42.7722 49.9563 42.2125C49.9543 41.6528 49.731 41.1165 49.3351 40.7208C48.9392 40.3251 48.4028 40.1021 47.8431 40.1004C47.2833 40.0986 46.7456 40.3184 46.3473 40.7116L43.8745 43.1844L43.0574 42.3643L48.7461 36.6755C49.1392 36.277 49.3586 35.7392 49.3566 35.1794C49.3546 34.6197 49.1313 34.0835 48.7354 33.6878C48.3395 33.2921 47.8031 33.069 47.2434 33.0673C46.6836 33.0656 46.1459 33.2853 45.7476 33.6785L40.0588 39.3673L39.2418 38.5502L47.038 30.754C47.4356 30.3564 47.659 29.817 47.659 29.2547C47.659 28.6924 47.4356 28.1531 47.038 27.7554C46.6403 27.3578 46.101 27.1344 45.5387 27.1344C44.9764 27.1344 44.4371 27.3578 44.0394 27.7554L36.2432 35.5517L35.4261 34.7346L41.1164 29.0443C41.313 28.8477 41.469 28.6143 41.5754 28.3575C41.6818 28.1006 41.7366 27.8253 41.7366 27.5473C41.7366 27.2693 41.6818 26.994 41.5754 26.7371C41.469 26.4803 41.313 26.2469 41.1164 26.0504" fill="#FCF2E9"/>
</svg>
