<svg width="72" height="38" viewBox="0 0 72 38" fill="none" xmlns="http://www.w3.org/2000/svg">
<rect width="72" height="38" rx="19" fill="#0A0A0A"/>
<rect x="4" y="4" width="30" height="30" rx="15" fill="#EFBD93"/>
<path d="M19 28C16.5 28 14.375 27.125 12.625 25.375C10.875 23.625 10 21.5 10 19C10 16.5 10.875 14.375 12.625 12.625C14.375 10.875 16.5 10 19 10C19.2333 10 19.4627 10.0083 19.688 10.025C19.9133 10.0417 20.134 10.0667 20.35 10.1C19.6667 10.5833 19.1207 11.2127 18.712 11.988C18.3033 12.7633 18.0993 13.6007 18.1 14.5C18.1 16 18.625 17.275 19.675 18.325C20.725 19.375 22 19.9 23.5 19.9C24.4167 19.9 25.2583 19.6957 26.025 19.287C26.7917 18.8783 27.4167 18.3327 27.9 17.65C27.9333 17.8667 27.9583 18.0873 27.975 18.312C27.9917 18.5367 28 18.766 28 19C28 21.5 27.125 23.625 25.375 25.375C23.625 27.125 21.5 28 19 28Z" fill="#0A0A0A"/>
<path d="M53 24.8334C53.2041 24.8334 53.4011 24.9084 53.5537 25.044C53.7062 25.1796 53.8036 25.3665 53.8275 25.5692L53.8333 25.6667V26.5001C53.8331 26.7125 53.7518 26.9168 53.606 27.0712C53.4602 27.2257 53.2609 27.3186 53.0489 27.3311C52.8368 27.3435 52.628 27.2745 52.4652 27.1382C52.3023 27.0019 52.1976 26.8085 52.1725 26.5976L52.1667 26.5001V25.6667C52.1667 25.4457 52.2545 25.2338 52.4108 25.0775C52.567 24.9212 52.779 24.8334 53 24.8334ZM58.2608 23.0917L58.3392 23.1609L58.9225 23.7442C59.072 23.8942 59.1587 24.0954 59.1652 24.3071C59.1717 24.5187 59.0973 24.7248 58.9573 24.8836C58.8173 25.0425 58.6221 25.142 58.4113 25.1621C58.2005 25.1822 57.99 25.1213 57.8225 24.9917L57.7442 24.9226L57.1608 24.3392C57.017 24.1957 56.9306 24.0045 56.9179 23.8018C56.9051 23.599 56.9669 23.3985 57.0916 23.2381C57.2163 23.0776 57.3954 22.9683 57.595 22.9306C57.7947 22.8929 58.0012 22.9295 58.1758 23.0334L58.2608 23.0917ZM48.8392 23.1609C48.9827 23.3044 49.0689 23.4953 49.0816 23.6978C49.0943 23.9004 49.0327 24.1006 48.9083 24.2609L48.8392 24.3392L48.2558 24.9226C48.1059 25.072 47.9047 25.1588 47.693 25.1653C47.4814 25.1717 47.2753 25.0974 47.1164 24.9574C46.9576 24.8173 46.8581 24.6221 46.838 24.4114C46.8179 24.2006 46.8788 23.9901 47.0083 23.8226L47.0775 23.7442L47.6608 23.1609C47.8171 23.0047 48.029 22.9169 48.25 22.9169C48.471 22.9169 48.6829 23.0047 48.8392 23.1609ZM46.3333 18.1667C46.5457 18.167 46.75 18.2483 46.9045 18.3941C47.0589 18.5399 47.1519 18.7392 47.1643 18.9512C47.1768 19.1633 47.1078 19.3721 46.9715 19.5349C46.8351 19.6978 46.6418 19.8025 46.4308 19.8276L46.3333 19.8334H45.5C45.2876 19.8332 45.0833 19.7518 44.9289 19.606C44.7744 19.4602 44.6815 19.261 44.669 19.0489C44.6566 18.8369 44.7256 18.6281 44.8619 18.4652C44.9982 18.3023 45.1916 18.1977 45.4025 18.1726L45.5 18.1667H46.3333ZM60.5 18.1667C60.7124 18.167 60.9167 18.2483 61.0712 18.3941C61.2256 18.5399 61.3185 18.7392 61.331 18.9512C61.3434 19.1633 61.2745 19.3721 61.1381 19.5349C61.0018 19.6978 60.8084 19.8025 60.5975 19.8276L60.5 19.8334H59.6667C59.4543 19.8332 59.25 19.7518 59.0955 19.606C58.9411 19.4602 58.8482 19.261 58.8357 19.0489C58.8233 18.8369 58.8922 18.6281 59.0286 18.4652C59.1649 18.3023 59.3583 18.1977 59.5692 18.1726L59.6667 18.1667H60.5ZM48.1775 13.0084L48.2558 13.0776L48.8392 13.6609C48.9886 13.8109 49.0754 14.0121 49.0819 14.2237C49.0883 14.4354 49.014 14.6415 48.874 14.8003C48.7339 14.9591 48.5387 15.0587 48.328 15.0787C48.1172 15.0988 47.9067 15.0379 47.7392 14.9084L47.6608 14.8392L47.0775 14.2559C46.9343 14.1123 46.8483 13.9214 46.8357 13.7189C46.8232 13.5165 46.8849 13.3164 47.0093 13.1562C47.1337 12.996 47.3123 12.8867 47.5116 12.8487C47.7108 12.8108 47.9171 12.8468 48.0917 12.9501L48.1775 13.0084ZM58.9225 13.0776C59.066 13.2211 59.1522 13.412 59.1649 13.6145C59.1777 13.817 59.1161 14.0172 58.9917 14.1776L58.9225 14.2559L58.3392 14.8392C58.1892 14.9887 57.988 15.0755 57.7764 15.0819C57.5647 15.0884 57.3586 15.0141 57.1998 14.874C57.041 14.734 56.9414 14.5388 56.9213 14.328C56.9013 14.1173 56.9622 13.9067 57.0917 13.7392L57.1608 13.6609L57.7442 13.0776C57.9005 12.9214 58.1124 12.8336 58.3333 12.8336C58.5543 12.8336 58.7662 12.9214 58.9225 13.0776ZM53 10.6667C53.2041 10.6668 53.4011 10.7417 53.5537 10.8773C53.7062 11.013 53.8036 11.1999 53.8275 11.4026L53.8333 11.5001V12.3334C53.8331 12.5458 53.7518 12.7501 53.606 12.9046C53.4602 13.059 53.2609 13.1519 53.0489 13.1644C52.8368 13.1768 52.628 13.1079 52.4652 12.9715C52.3023 12.8352 52.1976 12.6418 52.1725 12.4309L52.1667 12.3334V11.5001C52.1667 11.2791 52.2545 11.0671 52.4108 10.9108C52.567 10.7545 52.779 10.6667 53 10.6667ZM53 14.8334C53.8164 14.8334 54.6148 15.0732 55.2961 15.523C55.9774 15.9728 56.5115 16.6129 56.8321 17.3637C57.1528 18.1145 57.2458 18.943 57.0996 19.7462C56.9534 20.5494 56.5745 21.2919 56.0099 21.8816C55.4453 22.4713 54.7199 22.8822 53.9238 23.0631C53.1277 23.2441 52.296 23.1872 51.532 22.8995C50.7679 22.6118 50.1053 22.106 49.6262 21.4449C49.1472 20.7838 48.8729 19.9965 48.8375 19.1809L48.8333 19.0001L48.8375 18.8192C48.8841 17.7465 49.343 16.7332 50.1185 15.9906C50.894 15.248 51.9263 14.8335 53 14.8334Z" fill="white"/>
</svg>
