<svg width="18" height="18" viewBox="0 0 18 18" fill="none" xmlns="http://www.w3.org/2000/svg">
<path d="M16.5 7.875V9C16.5 12.5355 16.5 14.3032 15.4012 15.4012C14.304 16.5 12.5355 16.5 9 16.5C5.4645 16.5 3.69675 16.5 2.598 15.4012C1.5 14.304 1.5 12.5355 1.5 9C1.5 8.154 1.5 7.4085 1.515 6.75M10.125 1.5H9C5.4645 1.5 3.69675 1.5 2.598 2.598C2.268 2.92875 2.03625 3.32025 1.875 3.8025" stroke="#717171" stroke-linecap="round"/>
<path d="M5.25 10.5L6.59775 8.883C7.13175 8.24175 7.39875 7.9215 7.74975 7.9215C8.1015 7.9215 8.3685 8.24175 8.9025 8.883L9.0975 9.117C9.6315 9.75825 9.8985 10.0785 10.2502 10.0785C10.602 10.0785 10.8683 9.75825 11.4023 9.117L12.75 7.5" stroke="#717171" stroke-linecap="round"/>
<path d="M14.25 6C15.4926 6 16.5 4.99264 16.5 3.75C16.5 2.50736 15.4926 1.5 14.25 1.5C13.0074 1.5 12 2.50736 12 3.75C12 4.99264 13.0074 6 14.25 6Z" stroke="#717171"/>
</svg>
