<svg width="47" height="48" viewBox="0 0 47 48" fill="none" xmlns="http://www.w3.org/2000/svg">
<path d="M0 12.5C0 5.87258 5.37258 0.5 12 0.5H35C41.6274 0.5 47 5.87258 47 12.5V35.5C47 42.1274 41.6274 47.5 35 47.5H12C5.37258 47.5 0 42.1274 0 35.5V12.5Z" fill="white"/>
<path d="M31.213 20.3786L30.967 20.9446C30.9286 21.0368 30.8637 21.1155 30.7806 21.1709C30.6975 21.2262 30.5999 21.2558 30.5 21.2558C30.4001 21.2558 30.3025 21.2262 30.2194 21.1709C30.1363 21.1155 30.0714 21.0368 30.033 20.9446L29.787 20.3786C29.3545 19.3773 28.5624 18.5745 27.567 18.1286L26.808 17.7896C26.7159 17.7472 26.6379 17.6794 26.5832 17.594C26.5286 17.5087 26.4995 17.4094 26.4995 17.3081C26.4995 17.2067 26.5286 17.1075 26.5832 17.0222C26.6379 16.9368 26.7159 16.869 26.808 16.8266L27.525 16.5076C28.5454 16.049 29.3511 15.2165 29.776 14.1816L30.029 13.5706C30.0662 13.4759 30.131 13.3947 30.215 13.3374C30.299 13.2801 30.3983 13.2495 30.5 13.2495C30.6017 13.2495 30.701 13.2801 30.785 13.3374C30.869 13.3947 30.9338 13.4759 30.971 13.5706L31.224 14.1806C31.6485 15.2157 32.4538 16.0485 33.474 16.5076L34.192 16.8276C34.2838 16.8701 34.3615 16.9379 34.416 17.0232C34.4705 17.1084 34.4994 17.2074 34.4994 17.3086C34.4994 17.4097 34.4705 17.5088 34.416 17.594C34.3615 17.6793 34.2838 17.7471 34.192 17.7896L33.432 18.1276C32.4368 18.574 31.6451 19.3771 31.213 20.3786ZM30.5 23.2506C31.1787 23.2511 31.8526 23.1365 32.493 22.9116C32.4977 23.0249 32.5 23.1379 32.5 23.2506C32.5 25.3723 31.6571 27.4072 30.1569 28.9074C28.6566 30.4077 26.6217 31.2506 24.5 31.2506V34.7506C19.5 32.7506 12.5 29.7506 12.5 23.2506C12.5 21.1289 13.3429 19.094 14.8431 17.5937C16.3434 16.0934 18.3783 15.2506 20.5 15.2506H24.5C24.6133 15.2506 24.7263 15.2529 24.839 15.2576C24.5203 16.1625 24.4233 17.1307 24.556 18.0808C24.6888 19.031 25.0475 19.9355 25.602 20.7184C26.1565 21.5013 26.8906 22.1399 27.7429 22.5805C28.5951 23.0211 29.5406 23.2509 30.5 23.2506Z" fill="#CF9F78"/>
</svg>
