<svg width="15" height="20" viewBox="0 0 15 20" fill="none" xmlns="http://www.w3.org/2000/svg">
<path d="M7.5 0.8125C6.45571 0.8125 5.45419 1.22734 4.71577 1.96577C3.97734 2.70419 3.5625 3.70571 3.5625 4.75V10C3.5625 11.0443 3.97734 12.0458 4.71577 12.7842C5.45419 13.5227 6.45571 13.9375 7.5 13.9375C8.54429 13.9375 9.54581 13.5227 10.2842 12.7842C11.0227 12.0458 11.4375 11.0443 11.4375 10V4.75C11.4375 3.70571 11.0227 2.70419 10.2842 1.96577C9.54581 1.22734 8.54429 0.8125 7.5 0.8125ZM1.59375 9.34375C1.7678 9.34375 1.93472 9.41289 2.05779 9.53596C2.18086 9.65903 2.25 9.82595 2.25 10C2.25 11.3924 2.80312 12.7277 3.78769 13.7123C4.77226 14.6969 6.10761 15.25 7.5 15.25C8.89239 15.25 10.2277 14.6969 11.2123 13.7123C12.1969 12.7277 12.75 11.3924 12.75 10C12.75 9.82595 12.8191 9.65903 12.9422 9.53596C13.0653 9.41289 13.2322 9.34375 13.4062 9.34375C13.5803 9.34375 13.7472 9.41289 13.8703 9.53596C13.9934 9.65903 14.0625 9.82595 14.0625 10C14.0625 13.4033 11.4723 16.2016 8.15559 16.5297L8.15625 16.5625V18.5312C8.15625 18.7053 8.08711 18.8722 7.96404 18.9953C7.84097 19.1184 7.67405 19.1875 7.5 19.1875C7.32595 19.1875 7.15903 19.1184 7.03596 18.9953C6.91289 18.8722 6.84375 18.7053 6.84375 18.5312V16.5625L6.84441 16.5297C3.52772 16.2016 0.9375 13.404 0.9375 10C0.9375 9.82595 1.00664 9.65903 1.12971 9.53596C1.25278 9.41289 1.4197 9.34375 1.59375 9.34375Z" fill="#0A0A0A"/>
</svg>
