<svg width="19" height="18" viewBox="0 0 19 18" fill="none" xmlns="http://www.w3.org/2000/svg">
<path d="M2.3975 11.0775C2.23775 12.123 2.951 12.8483 3.824 13.2098C7.17125 14.5973 11.8288 14.5973 15.176 13.2098C16.049 12.8483 16.7623 12.1223 16.6025 11.0775C16.505 10.4348 16.0198 9.9 15.6605 9.37725C15.1903 8.68425 15.1438 7.929 15.143 7.125C15.1438 4.0185 12.6178 1.5 9.5 1.5C6.38225 1.5 3.85625 4.0185 3.85625 7.125C3.85625 7.929 3.80975 8.685 3.33875 9.37725C2.98025 9.9 2.49575 10.4348 2.3975 11.0775Z" stroke="white" stroke-linecap="round" stroke-linejoin="round"/>
<path d="M6.5 14.25C6.8435 15.5438 8.057 16.5 9.5 16.5C10.9437 16.5 12.1558 15.5438 12.5 14.25" stroke="white" stroke-linecap="round" stroke-linejoin="round"/>
</svg>
