<svg width="24" height="24" viewBox="0 0 24 24" fill="none" xmlns="http://www.w3.org/2000/svg">
<path fill-rule="evenodd" clip-rule="evenodd" d="M15.25 5C15.25 4.00544 15.6451 3.05161 16.3483 2.34835C17.0516 1.64509 18.0054 1.25 19 1.25C19.9946 1.25 20.9484 1.64509 21.6517 2.34835C22.3549 3.05161 22.75 4.00544 22.75 5C22.75 5.99456 22.3549 6.94839 21.6517 7.65165C20.9484 8.35491 19.9946 8.75 19 8.75C18.0054 8.75 17.0516 8.35491 16.3483 7.65165C15.6451 6.94839 15.25 5.99456 15.25 5Z" fill="#BB8A2A"/>
<path fill-rule="evenodd" clip-rule="evenodd" d="M14.527 2.25C13.9078 3.25578 13.6459 4.44096 13.7835 5.614C13.9211 6.78704 14.4503 7.8794 15.2854 8.71456C16.1206 9.54971 17.213 10.0789 18.386 10.2165C19.559 10.3541 20.7442 10.0922 21.75 9.473V15C21.75 16.7902 21.0388 18.5071 19.773 19.773C18.5071 21.0388 16.7902 21.75 15 21.75H9C7.20979 21.75 5.4929 21.0388 4.22703 19.773C2.96116 18.5071 2.25 16.7902 2.25 15V9C2.25 7.20979 2.96116 5.4929 4.22703 4.22703C5.4929 2.96116 7.20979 2.25 9 2.25H14.527Z" fill="#BB8A2A"/>
</svg>
