<svg width="17" height="18" viewBox="0 0 17 18" fill="none" xmlns="http://www.w3.org/2000/svg">
<path d="M2.12504 12.5416H14.875C15.0757 12.5416 15.2441 12.6096 15.3801 12.7456C15.5161 12.8816 15.5838 13.0497 15.5834 13.25C15.5829 13.4502 15.5149 13.6185 15.3794 13.755C15.2438 13.8915 15.0757 13.9592 14.875 13.9583H2.12504C1.92435 13.9583 1.75624 13.8903 1.62071 13.7543C1.48518 13.6183 1.41718 13.4502 1.41671 13.25C1.41624 13.0497 1.48424 12.8816 1.62071 12.7456C1.75718 12.6096 1.92529 12.5416 2.12504 12.5416ZM2.83338 8.61037L2.49692 9.21245C2.42609 9.34231 2.31984 9.42495 2.17817 9.46037C2.0365 9.49578 1.90074 9.47808 1.77088 9.40724C1.64102 9.33641 1.55838 9.23016 1.52296 9.08849C1.48754 8.94683 1.50525 8.81106 1.57609 8.6812L1.91254 8.07912H1.23963C1.08616 8.07912 0.959363 8.02906 0.859252 7.92895C0.759141 7.82884 0.70885 7.70181 0.708377 7.54787C0.707905 7.39392 0.758197 7.26713 0.859252 7.16749C0.960308 7.06785 1.0871 7.01756 1.23963 7.01662H1.91254L1.57609 6.44995C1.50525 6.32009 1.48754 6.18433 1.52296 6.04266C1.55838 5.90099 1.64102 5.79474 1.77088 5.72391C1.90074 5.65308 2.0365 5.63537 2.17817 5.67078C2.31984 5.7062 2.42609 5.78884 2.49692 5.9187L2.83338 6.48537L3.16984 5.9187C3.24067 5.78884 3.34692 5.7062 3.48859 5.67078C3.63025 5.63537 3.76602 5.65308 3.89588 5.72391C4.02574 5.79474 4.10838 5.90099 4.14379 6.04266C4.17921 6.18433 4.1615 6.32009 4.09067 6.44995L3.75421 7.01662H4.42713C4.5806 7.01662 4.70763 7.06691 4.80821 7.16749C4.90879 7.26808 4.95885 7.39487 4.95838 7.54787C4.95791 7.70087 4.90761 7.8279 4.8075 7.92895C4.70739 8.03001 4.5806 8.08006 4.42713 8.07912H3.75421L4.09067 8.6812C4.1615 8.81106 4.17921 8.94683 4.14379 9.08849C4.10838 9.23016 4.02574 9.33641 3.89588 9.40724C3.76602 9.47808 3.63025 9.49578 3.48859 9.46037C3.34692 9.42495 3.24067 9.34231 3.16984 9.21245L2.83338 8.61037ZM8.50004 8.61037L8.16359 9.21245C8.09275 9.34231 7.9865 9.42495 7.84484 9.46037C7.70317 9.49578 7.56741 9.47808 7.43754 9.40724C7.30768 9.33641 7.22504 9.23016 7.18963 9.08849C7.15421 8.94683 7.17192 8.81106 7.24275 8.6812L7.57921 8.07912H6.90629C6.75282 8.07912 6.62603 8.02906 6.52592 7.92895C6.42581 7.82884 6.37552 7.70181 6.37504 7.54787C6.37457 7.39392 6.42486 7.26713 6.52592 7.16749C6.62697 7.06785 6.75377 7.01756 6.90629 7.01662H7.57921L7.24275 6.44995C7.17192 6.32009 7.15421 6.18433 7.18963 6.04266C7.22504 5.90099 7.30768 5.79474 7.43754 5.72391C7.56741 5.65308 7.70317 5.63537 7.84484 5.67078C7.9865 5.7062 8.09275 5.78884 8.16359 5.9187L8.50004 6.48537L8.8365 5.9187C8.90734 5.78884 9.01359 5.7062 9.15525 5.67078C9.29692 5.63537 9.43268 5.65308 9.56254 5.72391C9.6924 5.79474 9.77504 5.90099 9.81046 6.04266C9.84588 6.18433 9.82817 6.32009 9.75734 6.44995L9.42088 7.01662H10.0938C10.2473 7.01662 10.3741 7.06691 10.4742 7.16749C10.5743 7.26808 10.6246 7.39487 10.625 7.54787C10.6255 7.70087 10.5752 7.8279 10.4742 7.92895C10.3731 8.03001 10.2463 8.08006 10.0938 8.07912H9.42088L9.75734 8.6812C9.82817 8.81106 9.84588 8.94683 9.81046 9.08849C9.77504 9.23016 9.6924 9.33641 9.56254 9.40724C9.43268 9.47808 9.29692 9.49578 9.15525 9.46037C9.01359 9.42495 8.90734 9.34231 8.8365 9.21245L8.50004 8.61037ZM14.1667 8.61037L13.8303 9.21245C13.7594 9.34231 13.6532 9.42495 13.5115 9.46037C13.3698 9.49578 13.2341 9.47808 13.1042 9.40724C12.9743 9.33641 12.8917 9.23016 12.8563 9.08849C12.8209 8.94683 12.8386 8.81106 12.9094 8.6812L13.2459 8.07912H12.573C12.4195 8.07912 12.2927 8.02906 12.1926 7.92895C12.0925 7.82884 12.0422 7.70181 12.0417 7.54787C12.0412 7.39392 12.0915 7.26713 12.1926 7.16749C12.2936 7.06785 12.4204 7.01756 12.573 7.01662H13.2459L12.9094 6.44995C12.8386 6.32009 12.8209 6.18433 12.8563 6.04266C12.8917 5.90099 12.9743 5.79474 13.1042 5.72391C13.2341 5.65308 13.3698 5.63537 13.5115 5.67078C13.6532 5.7062 13.7594 5.78884 13.8303 5.9187L14.1667 6.48537L14.5032 5.9187C14.574 5.78884 14.6803 5.7062 14.8219 5.67078C14.9636 5.63537 15.0993 5.65308 15.2292 5.72391C15.3591 5.79474 15.4417 5.90099 15.4771 6.04266C15.5125 6.18433 15.4948 6.32009 15.424 6.44995L15.0875 7.01662H15.7605C15.9139 7.01662 16.041 7.06691 16.1415 7.16749C16.2421 7.26808 16.2922 7.39487 16.2917 7.54787C16.2912 7.70087 16.2409 7.8279 16.1408 7.92895C16.0407 8.03001 15.9139 8.08006 15.7605 8.07912H15.0875L15.424 8.6812C15.4948 8.81106 15.5125 8.94683 15.4771 9.08849C15.4417 9.23016 15.3591 9.33641 15.2292 9.40724C15.0993 9.47808 14.9636 9.49578 14.8219 9.46037C14.6803 9.42495 14.574 9.34231 14.5032 9.21245L14.1667 8.61037Z" fill="white"/>
</svg>
