<svg width="15" height="16" viewBox="0 0 15 16" fill="none" xmlns="http://www.w3.org/2000/svg">
<path d="M14.2502 14.7502L10.9929 11.4929M10.9929 11.4929C11.5501 10.9357 11.992 10.2743 12.2936 9.54631C12.5951 8.81834 12.7503 8.03811 12.7503 7.25015C12.7503 6.4622 12.5951 5.68197 12.2936 4.95399C11.992 4.22602 11.5501 3.56457 10.9929 3.0074C10.4357 2.45024 9.77429 2.00827 9.04631 1.70673C8.31834 1.4052 7.53811 1.25 6.75015 1.25C5.9622 1.25 5.18197 1.4052 4.45399 1.70673C3.72602 2.00827 3.06457 2.45024 2.5074 3.0074C1.38216 4.13265 0.75 5.65881 0.75 7.25015C0.75 8.84149 1.38216 10.3677 2.5074 11.4929C3.63265 12.6182 5.15881 13.2503 6.75015 13.2503C8.34149 13.2503 9.86766 12.6182 10.9929 11.4929Z" stroke="white" stroke-linecap="round" stroke-linejoin="round"/>
</svg>
