<svg width="15" height="16" viewBox="0 0 15 16" fill="none" xmlns="http://www.w3.org/2000/svg">
<path d="M14.2502 14.75L10.9929 11.4928M10.9929 11.4928C11.5501 10.9356 11.992 10.2742 12.2936 9.54619C12.5951 8.81822 12.7503 8.03798 12.7503 7.25003C12.7503 6.46208 12.5951 5.68184 12.2936 4.95387C11.992 4.2259 11.5501 3.56445 10.9929 3.00728C10.4357 2.45012 9.77429 2.00815 9.04631 1.70661C8.31834 1.40508 7.53811 1.24988 6.75015 1.24988C5.9622 1.24988 5.18197 1.40508 4.45399 1.70661C3.72602 2.00815 3.06457 2.45012 2.5074 3.00728C1.38216 4.13253 0.75 5.65869 0.75 7.25003C0.75 8.84137 1.38216 10.3675 2.5074 11.4928C3.63265 12.618 5.15881 13.2502 6.75015 13.2502C8.34149 13.2502 9.86766 12.618 10.9929 11.4928Z" stroke="#0A0A0A" stroke-linecap="round" stroke-linejoin="round"/>
</svg>
