<svg width="47" height="48" viewBox="0 0 47 48" fill="none" xmlns="http://www.w3.org/2000/svg">
<path d="M0 12.5C0 5.87258 5.37258 0.5 12 0.5H35C41.6274 0.5 47 5.87258 47 12.5V35.5C47 42.1274 41.6274 47.5 35 47.5H12C5.37258 47.5 0 42.1274 0 35.5V12.5Z" fill="#EFBD93"/>
<path d="M31.1848 16.3153C31.0963 16.2271 30.9844 16.1661 30.8623 16.1393C30.7402 16.1126 30.6131 16.1213 30.4958 16.1643L16.0583 21.4143C15.9338 21.4616 15.8266 21.5455 15.7509 21.6551C15.6753 21.7647 15.6348 21.8948 15.6348 22.0279C15.6348 22.1611 15.6753 22.2911 15.7509 22.4007C15.8266 22.5103 15.9338 22.5943 16.0583 22.6415L22.3583 25.1615L24.8783 31.4615C24.9256 31.5806 25.0068 31.6831 25.1117 31.7566C25.2167 31.8301 25.3408 31.8712 25.4689 31.875C25.6015 31.8722 25.7302 31.8294 25.838 31.7521C25.9458 31.6748 26.0276 31.5666 26.0727 31.4418L31.3227 17.0043C31.3674 16.8882 31.3781 16.7618 31.3537 16.6398C31.3293 16.5178 31.2708 16.4052 31.1848 16.3153ZM25.4689 29.3812L23.638 24.7875L26.7814 21.644L25.8561 20.7187L22.6864 23.8884L18.1189 22.0312L29.623 17.8771L25.4689 29.3812Z" fill="#0A0A0A"/>
</svg>
