<svg width="19" height="18" viewBox="0 0 19 18" fill="none" xmlns="http://www.w3.org/2000/svg">
<path d="M7.25 6L11.75 12M16.0925 6.864C16.6985 7.9065 17 8.42775 17 9C17 9.57225 16.6978 10.0935 16.0925 11.136L14.6503 13.623C14.048 14.661 13.7465 15.18 13.2515 15.465C12.7565 15.75 12.155 15.75 10.9528 15.75H8.04725C6.845 15.75 6.2435 15.75 5.7485 15.465C5.2535 15.18 4.952 14.661 4.34975 13.623L2.9075 11.136C2.30225 10.0935 2 9.57225 2 9C2 8.42775 2.30225 7.9065 2.9075 6.864L4.34975 4.377C4.952 3.339 5.2535 2.82 5.7485 2.535C6.2435 2.25 6.845 2.25 8.04725 2.25H10.9528C12.155 2.25 12.7565 2.25 13.2515 2.535C13.7465 2.82 14.048 3.339 14.6503 4.377L16.0925 6.864Z" stroke="#717171" stroke-linecap="round" stroke-linejoin="round"/>
</svg>
