<svg width="29" height="29" viewBox="0 0 29 29" fill="none" xmlns="http://www.w3.org/2000/svg">
<path d="M11.3185 2.71875C9.99896 2.71875 8.95254 2.71875 8.11033 2.78762C7.24758 2.85771 6.51896 3.00512 5.85317 3.34346C4.7729 3.89407 3.89475 4.77264 3.34467 5.85317C3.00512 6.51775 2.85771 7.24758 2.78762 8.11033C2.71875 8.95254 2.71875 9.99896 2.71875 11.3185V17.6815C2.71875 19.001 2.71875 20.0475 2.78762 20.8897C2.85771 21.7524 3.00512 22.481 3.34346 23.148C3.89427 24.2279 4.77282 25.1056 5.85317 25.6553C6.51775 25.9949 7.24758 26.1423 8.11033 26.2124C8.95254 26.2813 9.99896 26.2812 11.3185 26.2812H17.6815C19.001 26.2812 20.0475 26.2813 20.8897 26.2124C21.7524 26.1423 22.481 25.9949 23.148 25.6565C24.2277 25.106 25.1054 24.2279 25.6553 23.148C25.9949 22.481 26.1423 21.7524 26.2124 20.8897C26.2813 20.0475 26.2812 19.001 26.2812 17.6815V11.3185C26.2812 9.99896 26.2813 8.95254 26.2124 8.11033C26.1423 7.24758 25.9949 6.51896 25.6565 5.85317C25.1063 4.77308 24.2281 3.89496 23.148 3.34467C22.481 3.00512 21.7524 2.85771 20.8897 2.78762C20.0475 2.71875 19.001 2.71875 17.6815 2.71875H11.3185ZM10.1464 17.5849C10.2173 17.4892 10.3065 17.4085 10.4086 17.3473C10.5108 17.2861 10.6241 17.2456 10.7419 17.2282C10.8598 17.2108 10.9799 17.2168 11.0954 17.2459C11.2109 17.2749 11.3195 17.3265 11.4151 17.3976C12.2948 18.0501 13.3569 18.4271 14.5 18.4271C15.6431 18.4271 16.7052 18.0489 17.5849 17.3976C17.6802 17.3234 17.7893 17.2691 17.9059 17.2377C18.0225 17.2063 18.1441 17.1985 18.2638 17.2148C18.3834 17.2311 18.4986 17.2712 18.6025 17.3326C18.7064 17.394 18.7971 17.4756 18.869 17.5725C18.941 17.6695 18.9929 17.7798 19.0216 17.8971C19.0504 18.0143 19.0554 18.1362 19.0364 18.2554C19.0174 18.3746 18.9748 18.4888 18.911 18.5914C18.8473 18.6939 18.7637 18.7826 18.6651 18.8524C17.4623 19.7512 16.0015 20.2378 14.5 20.2396C12.9985 20.2378 11.5377 19.7512 10.3349 18.8524C10.142 18.7091 10.0139 18.4951 9.97881 18.2574C9.94369 18.0197 10.0032 17.7778 10.1464 17.5849ZM12.3854 12.0833V12.6875C12.3854 12.9279 12.2899 13.1584 12.12 13.3283C11.95 13.4983 11.7195 13.5938 11.4792 13.5938C11.2388 13.5938 11.0083 13.4983 10.8384 13.3283C10.6684 13.1584 10.5729 12.9279 10.5729 12.6875V12.0833C10.5729 11.843 10.6684 11.6125 10.8384 11.4425C11.0083 11.2726 11.2388 11.1771 11.4792 11.1771C11.7195 11.1771 11.95 11.2726 12.12 11.4425C12.2899 11.6125 12.3854 11.843 12.3854 12.0833ZM17.5208 11.1771C17.7612 11.1771 17.9917 11.2726 18.1616 11.4425C18.3316 11.6125 18.4271 11.843 18.4271 12.0833V12.6875C18.4271 12.9279 18.3316 13.1584 18.1616 13.3283C17.9917 13.4983 17.7612 13.5938 17.5208 13.5938C17.2805 13.5938 17.05 13.4983 16.88 13.3283C16.7101 13.1584 16.6146 12.9279 16.6146 12.6875V12.0833C16.6146 11.843 16.7101 11.6125 16.88 11.4425C17.05 11.2726 17.2805 11.1771 17.5208 11.1771Z" fill="#F8BD00"/>
</svg>
