<svg width="18" height="19" viewBox="0 0 18 19" fill="none" xmlns="http://www.w3.org/2000/svg">
<path fill-rule="evenodd" clip-rule="evenodd" d="M12.7274 5.72749C12.8329 5.62216 12.9758 5.56299 13.1249 5.56299C13.2739 5.56299 13.4169 5.62216 13.5224 5.72749L13.5239 5.72899L13.5261 5.73049L13.5314 5.73574L13.5464 5.75074L13.5929 5.80249C13.6304 5.84524 13.6829 5.90599 13.7436 5.98324C14.4366 6.88397 14.8124 7.98854 14.8124 9.12499C14.8124 10.2614 14.4366 11.366 13.7436 12.2667C13.6808 12.3469 13.6148 12.4245 13.5456 12.4992L13.5306 12.5142L13.5261 12.5195L13.5239 12.521L13.5231 12.5217L13.1406 12.1407L13.5231 12.5232C13.4176 12.6288 13.2745 12.688 13.1253 12.688C12.976 12.688 12.8329 12.6288 12.7274 12.5232C12.6219 12.4177 12.5626 12.2746 12.5626 12.1254C12.5626 11.9761 12.6219 11.833 12.7274 11.7275L12.7266 11.7282L12.7251 11.729L12.7289 11.7252L12.7536 11.6982C12.7776 11.6722 12.8124 11.6305 12.8579 11.573C13.3324 10.9536 13.6167 10.2097 13.6763 9.43174C13.736 8.65378 13.5684 7.87524 13.1939 7.19074C13.0961 7.0106 12.9837 6.83877 12.8579 6.67699C12.8172 6.62436 12.7741 6.57356 12.7289 6.52474L12.7251 6.52099C12.6206 6.41529 12.5621 6.27248 12.5625 6.12378C12.5629 5.97508 12.6222 5.8326 12.7274 5.72749Z" fill="#717171"/>
<path fill-rule="evenodd" clip-rule="evenodd" d="M14.9775 3.47755C15.083 3.37221 15.2259 3.31304 15.375 3.31304C15.5241 3.31304 15.667 3.37221 15.7725 3.47755L15.7748 3.47905L15.777 3.4813L15.7838 3.4888C15.8163 3.52087 15.8473 3.5544 15.8768 3.5893C15.936 3.65605 16.0178 3.7528 16.1138 3.87805C16.3065 4.1278 16.5592 4.4953 16.8105 4.97305C17.313 5.92855 17.8125 7.3303 17.8125 9.12505C17.8125 10.9198 17.313 12.3215 16.8105 13.2778C16.6103 13.6622 16.3772 14.0286 16.1138 14.3728C16.0101 14.5076 15.9 14.6372 15.7838 14.7613L15.7762 14.7688L15.7748 14.771L15.7733 14.7718L15.375 14.375L15.7725 14.7725C15.6665 14.8751 15.5244 14.9318 15.3769 14.9306C15.2294 14.9294 15.0883 14.8703 14.984 14.7661C14.8796 14.6618 14.8204 14.5208 14.8191 14.3733C14.8177 14.2258 14.8743 14.0837 14.9767 13.9775L14.9872 13.967L15.0345 13.9145C15.079 13.8655 15.1415 13.7895 15.222 13.6865C15.381 13.4795 15.597 13.1668 15.8145 12.7535C16.2495 11.9285 16.6875 10.7053 16.6875 9.12505C16.6875 7.5448 16.2495 6.32155 15.8145 5.49655C15.6437 5.16935 15.4455 4.85723 15.222 4.56355C15.1476 4.46691 15.0693 4.37333 14.9872 4.28305L14.9767 4.27255C14.8714 4.16708 14.8122 4.02411 14.8122 3.87505C14.8122 3.72599 14.8722 3.58302 14.9775 3.47755ZM9.02775 3.04705C9.9 2.4718 11.0625 3.09805 11.0625 4.1428V14.8573C11.0625 15.9028 9.9 16.5283 9.02775 15.953L4.52775 12.9868C4.49731 12.9665 4.46159 12.9555 4.425 12.9553H2.25C1.70299 12.9553 1.17839 12.738 0.791592 12.3512C0.404799 11.9644 0.1875 11.4398 0.1875 10.8928V8.1073C0.1875 7.83645 0.240848 7.56825 0.344498 7.31801C0.448149 7.06778 0.600071 6.84041 0.791592 6.64889C0.983113 6.45737 1.21048 6.30545 1.46072 6.2018C1.71095 6.09815 1.97915 6.0448 2.25 6.0448H4.425C4.46177 6.04492 4.49776 6.03423 4.5285 6.01405L9.02775 3.04705Z" fill="#717171"/>
</svg>
