<svg width="20" height="20" viewBox="0 0 20 20" fill="none" xmlns="http://www.w3.org/2000/svg">
<path d="M7.58877 4.53996C8.0871 3.08163 10.1021 3.03746 10.6929 4.40746L10.7429 4.54079L11.4154 6.50746C11.5696 6.95849 11.8186 7.37122 12.1458 7.71781C12.473 8.06441 12.8707 8.3368 13.3121 8.51663L13.4929 8.58413L15.4596 9.25579C16.9179 9.75413 16.9621 11.7691 15.5929 12.36L15.4596 12.41L13.4929 13.0825C13.0418 13.2365 12.6289 13.4855 12.2821 13.8127C11.9354 14.1399 11.6628 14.5376 11.4829 14.9791L11.4154 15.1591L10.7438 17.1266C10.2454 18.585 8.23043 18.6291 7.64043 17.26L7.58877 17.1266L6.9171 15.16C6.76308 14.7088 6.51408 14.2959 6.18688 13.9491C5.85969 13.6024 5.46193 13.3299 5.02043 13.15L4.84043 13.0825L2.87377 12.4108C1.4146 11.9125 1.37043 9.89746 2.74043 9.30746L2.87377 9.25579L4.84043 8.58413C5.29146 8.43001 5.70419 8.18095 6.05079 7.85377C6.39738 7.52658 6.66978 7.12887 6.8496 6.68746L6.9171 6.50746L7.58877 4.53996ZM15.8329 1.66663C15.9888 1.66663 16.1416 1.71036 16.2739 1.79285C16.4062 1.87535 16.5127 1.99329 16.5813 2.13329L16.6213 2.23079L16.9129 3.08579L17.7688 3.37746C17.925 3.43054 18.062 3.52881 18.1623 3.65981C18.2626 3.79081 18.3218 3.94864 18.3323 4.11331C18.3429 4.27798 18.3043 4.44207 18.2214 4.58478C18.1386 4.7275 18.0153 4.84241 17.8671 4.91496L17.7688 4.95496L16.9138 5.24663L16.6221 6.10246C16.5689 6.25865 16.4706 6.39554 16.3395 6.49579C16.2085 6.59603 16.0506 6.65512 15.886 6.66556C15.7213 6.676 15.5572 6.63733 15.4146 6.55444C15.2719 6.47155 15.1571 6.34818 15.0846 6.19996L15.0446 6.10246L14.7529 5.24746L13.8971 4.95579C13.7409 4.90271 13.6039 4.80445 13.5036 4.67345C13.4032 4.54245 13.3441 4.38461 13.3335 4.21994C13.323 4.05527 13.3616 3.89118 13.4444 3.74847C13.5272 3.60576 13.6506 3.49084 13.7988 3.41829L13.8971 3.37829L14.7521 3.08663L15.0438 2.23079C15.1 2.06615 15.2063 1.92322 15.3478 1.82204C15.4893 1.72087 15.659 1.66652 15.8329 1.66663Z" fill="#717171"/>
</svg>
