<svg width="20" height="20" viewBox="0 0 20 20" fill="none" xmlns="http://www.w3.org/2000/svg">
<path d="M10 15.8334C10.2041 15.8334 10.4011 15.9084 10.5537 16.044C10.7062 16.1796 10.8036 16.3665 10.8275 16.5692L10.8333 16.6667V17.5001C10.8331 17.7125 10.7518 17.9168 10.606 18.0712C10.4602 18.2257 10.2609 18.3186 10.0489 18.3311C9.83681 18.3435 9.62803 18.2745 9.46515 18.1382C9.30227 18.0019 9.1976 17.8085 9.17251 17.5976L9.16668 17.5001V16.6667C9.16668 16.4457 9.25448 16.2338 9.41076 16.0775C9.56704 15.9212 9.779 15.8334 10 15.8334ZM15.2608 14.0917L15.3392 14.1609L15.9225 14.7442C16.072 14.8942 16.1587 15.0954 16.1652 15.3071C16.1717 15.5187 16.0973 15.7248 15.9573 15.8836C15.8173 16.0425 15.6221 16.142 15.4113 16.1621C15.2005 16.1822 14.99 16.1213 14.8225 15.9917L14.7442 15.9226L14.1608 15.3392C14.017 15.1957 13.9306 15.0045 13.9179 14.8018C13.9051 14.599 13.9669 14.3985 14.0916 14.2381C14.2163 14.0776 14.3954 13.9683 14.595 13.9306C14.7947 13.8929 15.0012 13.9295 15.1758 14.0334L15.2608 14.0917ZM5.83918 14.1609C5.98266 14.3044 6.06885 14.4953 6.08159 14.6978C6.09432 14.9004 6.03272 15.1006 5.90835 15.2609L5.83918 15.3392L5.25585 15.9226C5.10588 16.072 4.90465 16.1588 4.69303 16.1653C4.4814 16.1717 4.27525 16.0974 4.11645 15.9574C3.95764 15.8173 3.85809 15.6221 3.83801 15.4114C3.81794 15.2006 3.87884 14.9901 4.00835 14.8226L4.07751 14.7442L4.66085 14.1609C4.81712 14.0047 5.02904 13.9169 5.25001 13.9169C5.47098 13.9169 5.68291 14.0047 5.83918 14.1609ZM3.33335 9.16675C3.54575 9.16698 3.75004 9.24831 3.90449 9.39412C4.05893 9.53993 4.15187 9.73921 4.16432 9.95124C4.17677 10.1633 4.10778 10.3721 3.97146 10.5349C3.83513 10.6978 3.64176 10.8025 3.43085 10.8276L3.33335 10.8334H2.50001C2.28761 10.8332 2.08332 10.7518 1.92887 10.606C1.77443 10.4602 1.68148 10.261 1.66904 10.0489C1.65659 9.83688 1.72557 9.6281 1.8619 9.46522C1.99823 9.30234 2.1916 9.19767 2.40251 9.17258L2.50001 9.16675H3.33335ZM17.5 9.16675C17.7124 9.16698 17.9167 9.24831 18.0712 9.39412C18.2256 9.53993 18.3185 9.73921 18.331 9.95124C18.3434 10.1633 18.2745 10.3721 18.1381 10.5349C18.0018 10.6978 17.8084 10.8025 17.5975 10.8276L17.5 10.8334H16.6667C16.4543 10.8332 16.25 10.7518 16.0955 10.606C15.9411 10.4602 15.8482 10.261 15.8357 10.0489C15.8233 9.83688 15.8922 9.6281 16.0286 9.46522C16.1649 9.30234 16.3583 9.19767 16.5692 9.17258L16.6667 9.16675H17.5ZM5.17751 4.00841L5.25585 4.07758L5.83918 4.66091C5.98864 4.81088 6.07541 5.01211 6.08187 5.22373C6.08833 5.43536 6.014 5.64151 5.87397 5.80031C5.73394 5.95912 5.53872 6.05867 5.32795 6.07875C5.11718 6.09882 4.90667 6.03792 4.73918 5.90841L4.66085 5.83925L4.07751 5.25591C3.93425 5.11231 3.84829 4.92139 3.83573 4.71894C3.82318 4.51649 3.8849 4.31641 4.00931 4.15621C4.13373 3.99601 4.31231 3.88669 4.51157 3.84874C4.71083 3.81079 4.91709 3.84683 5.09168 3.95008L5.17751 4.00841ZM15.9225 4.07758C16.066 4.22108 16.1522 4.41199 16.1649 4.61451C16.1777 4.81704 16.1161 5.01724 15.9917 5.17758L15.9225 5.25591L15.3392 5.83925C15.1892 5.9887 14.988 6.07548 14.7764 6.08194C14.5647 6.0884 14.3586 6.01407 14.1998 5.87404C14.041 5.73401 13.9414 5.53879 13.9213 5.32802C13.9013 5.11725 13.9622 4.90674 14.0917 4.73925L14.1608 4.66091L14.7442 4.07758C14.9005 3.92136 15.1124 3.83359 15.3333 3.83359C15.5543 3.83359 15.7662 3.92136 15.9225 4.07758ZM10 1.66675C10.2041 1.66677 10.4011 1.74171 10.5537 1.87734C10.7062 2.01298 10.8036 2.19987 10.8275 2.40258L10.8333 2.50008V3.33341C10.8331 3.54581 10.7518 3.75011 10.606 3.90456C10.4602 4.059 10.2609 4.15194 10.0489 4.16439C9.83681 4.17684 9.62803 4.10785 9.46515 3.97153C9.30227 3.8352 9.1976 3.64183 9.17251 3.43091L9.16668 3.33341V2.50008C9.16668 2.27907 9.25448 2.06711 9.41076 1.91083C9.56704 1.75455 9.779 1.66675 10 1.66675ZM10 5.83341C10.8164 5.83337 11.6148 6.07316 12.2961 6.523C12.9774 6.97284 13.5115 7.61291 13.8321 8.36372C14.1528 9.11452 14.2458 9.94297 14.0996 10.7462C13.9534 11.5494 13.5745 12.2919 13.0099 12.8816C12.4453 13.4713 11.7199 13.8822 10.9238 14.0631C10.1277 14.2441 9.29599 14.1872 8.53196 13.8995C7.76793 13.6118 7.10525 13.106 6.62623 12.4449C6.1472 11.7838 5.87294 10.9965 5.83751 10.1809L5.83335 10.0001L5.83751 9.81925C5.88411 8.74654 6.34302 7.73323 7.11853 6.99063C7.89404 6.24803 8.92629 5.83348 10 5.83341Z" fill="white"/>
</svg>
