<svg width="17" height="18" viewBox="0 0 17 18" fill="none" xmlns="http://www.w3.org/2000/svg">
<g clip-path="url(#clip0_67_548)">
<path d="M8.92004 16.9745L8.91225 16.9759L8.86196 17.0007L8.84779 17.0035L8.83787 17.0007L8.78758 16.9759C8.78003 16.9735 8.77436 16.9747 8.77058 16.9794L8.76775 16.9865L8.75571 17.2897L8.75925 17.3039L8.76633 17.3131L8.84 17.3655L8.85062 17.3683L8.85912 17.3655L8.93279 17.3131L8.94129 17.3017L8.94412 17.2897L8.93208 16.9872C8.93019 16.9797 8.92618 16.9754 8.92004 16.9745ZM9.10775 16.8944L9.09854 16.8958L8.9675 16.9617L8.96042 16.9688L8.95829 16.9766L8.97104 17.2812L8.97458 17.2897L8.98025 17.2946L9.12262 17.3605C9.1316 17.3629 9.13844 17.361 9.14317 17.3549L9.146 17.3449L9.12192 16.91C9.11956 16.9015 9.11483 16.8963 9.10775 16.8944ZM8.60129 16.8958C8.59817 16.894 8.59444 16.8933 8.59088 16.8941C8.58731 16.8949 8.58419 16.8971 8.58217 16.9001L8.57792 16.91L8.55383 17.3449C8.55431 17.3534 8.55832 17.3591 8.56587 17.3619L8.5765 17.3605L8.71887 17.2946L8.72596 17.289L8.72879 17.2812L8.74083 16.9766L8.73871 16.9681L8.73162 16.961L8.60129 16.8958Z" fill="white"/>
<path d="M8.5 9.70841C10.1972 9.70841 11.7406 10.2 12.8761 10.8927C13.4427 11.2384 13.9272 11.6464 14.2772 12.0898C14.6214 12.5255 14.875 13.0468 14.875 13.6042C14.875 14.2028 14.5839 14.6745 14.1645 15.011C13.7679 15.3297 13.2444 15.5408 12.6884 15.6882C11.5706 15.9835 10.0789 16.0834 8.5 16.0834C6.92112 16.0834 5.42937 15.9842 4.31162 15.6882C3.75558 15.5408 3.23212 15.3297 2.83546 15.011C2.41542 14.6738 2.125 14.2028 2.125 13.6042C2.125 13.0468 2.37858 12.5255 2.72283 12.0891C3.07275 11.6464 3.55654 11.2391 4.12392 10.892C5.25937 10.2007 6.80354 9.70841 8.5 9.70841ZM8.5 1.91675C9.43931 1.91675 10.3401 2.28989 11.0043 2.95408C11.6685 3.61827 12.0417 4.51911 12.0417 5.45841C12.0417 6.39772 11.6685 7.29856 11.0043 7.96275C10.3401 8.62694 9.43931 9.00008 8.5 9.00008C7.56069 9.00008 6.65985 8.62694 5.99566 7.96275C5.33147 7.29856 4.95833 6.39772 4.95833 5.45841C4.95833 4.51911 5.33147 3.61827 5.99566 2.95408C6.65985 2.28989 7.56069 1.91675 8.5 1.91675Z" fill="white"/>
</g>
<defs>
<clipPath id="clip0_67_548">
<rect width="17" height="17" fill="white" transform="translate(0 0.5)"/>
</clipPath>
</defs>
</svg>
