<svg width="19" height="21" viewBox="0 0 19 21" fill="none" xmlns="http://www.w3.org/2000/svg">
<path d="M7.46033 12.395H1.92733C-0.618672 12.395 2.69133 1.5 4.51533 1.5H17.0363C17.5683 1.5 18.0003 1.924 18.0003 2.447V11.832C17.9993 12.003 17.9521 12.1706 17.8638 12.317C17.7754 12.4635 17.6491 12.5833 17.4983 12.664C15.4363 13.77 13.0173 14.676 11.8203 16.793L10.5403 19.059C10.464 19.1936 10.3532 19.3055 10.2192 19.383C10.0853 19.4605 9.93309 19.5009 9.77833 19.5C6.59833 19.5 7.54133 14.87 7.97333 13.03C7.99071 12.9534 7.9905 12.8738 7.97273 12.7973C7.95495 12.7208 7.92007 12.6493 7.8707 12.5882C7.82134 12.5271 7.75877 12.478 7.68769 12.4445C7.61661 12.411 7.53888 12.3941 7.46033 12.395Z" stroke="white" stroke-width="1.5" stroke-linecap="round" stroke-linejoin="round"/>
</svg>
